<?xml version="1.0" standalone="no"?>
<!DOCTYPE svg PUBLIC "-//W3C//DTD SVG 20010904//EN"
 "http://www.w3.org/TR/2001/REC-SVG-20010904/DTD/svg10.dtd">
<svg version="1.0" xmlns="http://www.w3.org/2000/svg"
 width="196.000000pt" height="196.000000pt" viewBox="0 0 196.000000 196.000000"
 preserveAspectRatio="xMidYMid meet">
<metadata>
Created by potrace 1.11, written by Peter Selinger 2001-2013
</metadata>
<g transform="translate(0.000000,196.000000) scale(0.100000,-0.100000)"
fill="#000000" stroke="none">
<path d="M805 1671 c-142 -38 -243 -99 -345 -207 -100 -105 -170 -252 -186
-387 l-7 -57 137 0 c136 0 136 0 136 23 0 13 9 49 19 79 50 146 176 258 324
290 l57 12 0 123 c0 68 1 126 3 131 5 15 -70 11 -138 -7z"/>
<path d="M286 943 c-44 -12 16 -228 99 -353 117 -176 321 -300 515 -312 45 -3
45 -3 44 30 0 17 -1 76 -2 131 l-2 98 -54 11 c-80 16 -152 57 -217 121 -64 64
-103 135 -123 219 l-13 57 -114 1 c-63 1 -122 0 -133 -3z"/>
<path d="M1411 894 c-32 -163 -173 -308 -331 -339 -66 -14 -68 -18 -69 -168
-1 -81 2 -109 12 -113 20 -7 164 24 229 51 88 36 204 122 269 198 90 107 144
231 164 374 l7 52 -135 0 -135 0 -11 -55z"/>
</g>
</svg>
