<svg width="2191" height="2291" viewBox="0 0 2191 2291" fill="none" xmlns="http://www.w3.org/2000/svg">
<path fill-rule="evenodd" clip-rule="evenodd" d="M2190.92 1366.75C2184.95 1381.06 2178.86 1395.45 2172.2 1409.64C2059.44 1651.04 1863.08 1843.46 1619.43 1951.31C1375.78 2059.16 1101.32 2075.15 846.794 1996.34C592.265 1917.52 374.882 1749.22 234.834 1522.55C94.7854 1295.89 41.5438 1026.18 84.9523 763.305C25.0682 906.9 -3.75021 1061.54 0.390651 1217.07C4.53152 1372.59 41.538 1525.48 108.978 1665.68C176.419 1805.89 272.766 1930.24 391.689 2030.56C510.613 2130.88 649.42 2204.9 798.99 2247.76C948.56 2290.62 1105.51 2301.34 1259.52 2279.23C1413.53 2257.11 1561.12 2202.66 1692.58 2119.45C1824.05 2036.24 1936.42 1926.16 2022.31 1796.43C2108.19 1666.7 2165.66 1520.27 2190.92 1366.75Z" fill="#1B75BC"/>
<path fill-rule="evenodd" clip-rule="evenodd" d="M630.157 690.399C727.666 481.681 904.092 320.239 1120.63 241.582C1337.17 162.924 1576.08 173.492 1784.83 270.963C1797.58 276.927 1810.02 283.149 1822.32 289.611C1718.91 180.541 1590.55 98.2105 1448.29 49.6944C1306.03 1.17831 1154.12 -12.0722 1005.6 11.0815C857.088 34.2353 716.417 93.1009 595.678 182.62C474.939 272.138 377.742 389.633 312.441 525.006C247.14 660.38 215.688 809.584 220.786 959.796C225.885 1110.01 267.382 1256.74 341.713 1387.37C416.043 1518 520.982 1628.64 647.514 1709.77C774.045 1790.89 918.384 1840.09 1068.13 1853.12C1061.9 1850.42 1055.7 1847.91 1049.48 1845.08C840.756 1747.54 679.326 1571.1 600.691 1354.57C522.056 1138.03 532.655 899.124 630.157 690.399Z" fill="#C61D23"/>
<path fill-rule="evenodd" clip-rule="evenodd" d="M1976.76 976.451C1963.23 1069.13 1924.64 1156.34 1865.15 1228.69C1805.66 1301.03 1727.54 1355.74 1639.22 1386.92C1550.89 1418.1 1455.73 1424.56 1364.01 1405.6C1272.28 1386.64 1187.48 1342.98 1118.76 1279.34C1050.04 1215.7 1000.02 1134.5 974.089 1044.5C948.16 954.503 947.312 859.132 971.638 768.688C995.964 678.245 1044.54 596.165 1112.12 531.314C1179.69 466.463 1263.71 421.306 1355.08 400.719C1223.64 396.62 1094.08 432.757 983.741 504.296C873.401 575.835 787.542 679.363 737.652 801.029C687.762 922.694 676.221 1056.69 704.572 1185.1C732.924 1313.5 799.816 1430.18 896.298 1519.53C992.78 1608.88 1114.25 1666.64 1244.46 1685.07C1374.66 1703.51 1507.39 1681.74 1624.89 1622.68C1742.38 1563.62 1839.04 1470.09 1901.92 1354.61C1964.81 1239.12 1990.92 1107.18 1976.76 976.451Z" fill="#939598"/>
<path fill-rule="evenodd" clip-rule="evenodd" d="M1712.61 1011.37C1691.84 1055.78 1658.37 1093.04 1616.42 1118.43C1574.48 1143.82 1525.94 1156.2 1476.96 1154.01C1427.98 1151.82 1380.74 1135.16 1341.23 1106.13C1301.72 1077.09 1271.7 1036.99 1254.98 990.904C1238.26 944.813 1235.58 894.799 1247.29 847.187C1258.99 799.575 1284.55 756.502 1320.74 723.416C1356.92 690.329 1402.11 668.716 1450.58 661.308C1499.05 653.9 1548.63 661.031 1593.04 681.798C1622.54 695.58 1649.03 715.04 1671.01 739.063C1692.98 763.087 1710.01 791.205 1721.11 821.811C1732.22 852.417 1737.18 884.91 1735.72 917.435C1734.26 949.959 1726.41 981.878 1712.61 1011.37Z" fill="#939598"/>
</svg>
