<svg width="1012" height="702" viewBox="0 0 1012 702" fill="none" xmlns="http://www.w3.org/2000/svg">
<path d="M436.472 190.396C434.604 190.396 432.707 189.975 430.924 189.074C393.677 170.371 354.616 155.908 314.818 146.101C275.074 136.308 234.295 131.078 193.62 130.558C186.784 130.468 181.311 124.857 181.395 118.016C181.485 111.176 187.111 105.936 193.937 105.792C236.499 106.337 279.16 111.805 320.742 122.053C362.333 132.301 403.147 147.403 442.039 166.938C448.146 170.009 450.613 177.449 447.547 183.561C445.372 187.9 441.004 190.396 436.472 190.396Z" fill="#303840"/>
<path d="M575.535 190.396C571.003 190.396 566.635 187.9 564.46 183.571C561.394 177.459 563.861 170.019 569.968 166.948C608.865 147.413 649.674 132.311 691.26 122.063C732.847 111.815 775.508 106.347 818.07 105.802C824.792 105.935 830.527 111.186 830.611 118.026C830.701 124.861 825.222 130.478 818.387 130.567C777.712 131.087 736.938 136.318 697.184 146.11C657.391 155.917 618.326 170.376 581.083 189.084C579.3 189.975 577.403 190.396 575.535 190.396Z" fill="#303840"/>
<path d="M436.472 277.72C434.604 277.72 432.707 277.299 430.924 276.397C393.677 257.694 354.616 243.236 314.818 233.429C275.069 223.631 234.29 218.406 193.62 217.886C186.784 217.797 181.311 212.185 181.395 205.344C181.485 198.504 187.111 193.185 193.937 193.12C236.489 193.665 279.155 199.138 320.742 209.386C362.328 219.634 403.142 234.736 442.039 254.271C448.146 257.342 450.613 264.782 447.547 270.894C445.372 275.218 441.004 277.72 436.472 277.72Z" fill="#303840"/>
<path d="M575.535 277.719C571.003 277.719 566.635 275.223 564.46 270.894C561.394 264.782 563.861 257.342 569.968 254.271C608.87 234.736 649.679 219.634 691.26 209.386C732.847 199.138 775.518 193.665 818.07 193.12C824.792 192.986 830.527 198.504 830.611 205.344C830.701 212.18 825.222 217.797 818.387 217.886C777.717 218.406 736.943 223.636 697.184 233.429C657.391 243.236 618.326 257.694 581.083 276.397C579.3 277.293 577.403 277.719 575.535 277.719Z" fill="#303840"/>
<path d="M436.472 365.043C434.604 365.043 432.707 364.622 430.924 363.72C393.677 345.012 354.616 330.554 314.823 320.752C275.079 310.955 234.3 305.729 193.62 305.209C186.784 305.12 181.311 299.508 181.395 292.668C181.485 285.827 187.111 280.429 193.937 280.443C236.504 280.988 279.165 286.461 320.747 296.709C362.333 306.952 403.142 322.055 442.039 341.595C448.146 344.666 450.613 352.105 447.547 358.217C445.372 362.541 441.004 365.043 436.472 365.043Z" fill="#303840"/>
<path d="M575.535 365.044C571.003 365.044 566.635 362.547 564.46 358.218C561.394 352.106 563.861 344.666 569.968 341.595C608.87 322.055 649.679 306.953 691.265 296.71C732.842 286.462 775.503 280.989 818.07 280.444C824.792 280.345 830.527 285.828 830.611 292.668C830.701 299.504 825.222 305.121 818.387 305.21C777.707 305.73 736.933 310.96 697.189 320.753C657.391 330.555 618.326 345.013 581.083 363.721C579.3 364.618 577.403 365.044 575.535 365.044Z" fill="#303840"/>
<path d="M436.472 452.361C434.604 452.361 432.707 451.94 430.924 451.039C393.677 432.336 354.616 417.877 314.818 408.07C275.074 398.278 234.295 393.047 193.62 392.527C186.784 392.438 181.311 386.826 181.395 379.986C181.485 373.2 187.012 367.762 193.773 367.762C193.833 367.762 193.877 367.762 193.937 367.762C236.499 368.307 279.16 373.775 320.742 384.023C362.328 394.271 403.142 409.373 442.039 428.908C448.146 431.979 450.613 439.419 447.547 445.531C445.372 449.86 441.004 452.361 436.472 452.361Z" fill="#303840"/>
<path d="M575.535 452.361C571.003 452.361 566.635 449.865 564.46 445.536C561.394 439.423 563.861 431.984 569.968 428.913C608.87 409.378 649.679 394.276 691.26 384.028C732.842 373.78 775.508 368.311 818.07 367.767C824.792 367.707 830.527 373.151 830.611 379.991C830.701 386.826 825.222 392.443 818.387 392.532C777.712 393.052 736.938 398.283 697.184 408.075C657.391 417.882 618.326 432.34 581.083 451.043C579.3 451.94 577.403 452.361 575.535 452.361Z" fill="#303840"/>
<path d="M999.139 36.1851H916.521C909.681 36.1851 904.139 41.7276 904.139 48.5679C904.139 55.4081 909.681 60.9507 916.521 60.9507H986.757V677.05H25.2461V60.9507H83.8267C90.667 60.9507 96.2095 55.4081 96.2095 48.5679C96.2095 41.7276 90.667 36.1851 83.8267 36.1851H12.8633C6.02302 36.1851 0.480469 41.7276 0.480469 48.5679V689.433C0.480469 696.273 6.02302 701.816 12.8633 701.816H999.134C1005.97 701.816 1011.52 696.273 1011.52 689.433V48.5679C1011.52 41.7276 1005.97 36.1851 999.139 36.1851Z" fill="#303840"/>
<path d="M128.847 550.513C236.964 550.513 342.49 569.548 443.177 607.147H89.5586V105.063C89.5586 98.2231 84.016 92.6805 77.1758 92.6805C70.3355 92.6805 64.793 98.2231 64.793 105.063V619.53C64.793 626.37 70.3355 631.912 77.1758 631.912H934.829C941.669 631.912 947.212 626.37 947.212 619.53V105.063C947.212 98.2231 941.669 92.6805 934.829 92.6805C927.989 92.6805 922.446 98.2231 922.446 105.063V607.147H568.823C669.51 569.548 775.036 550.513 883.153 550.513C889.993 550.513 895.536 544.97 895.536 538.13V12.5439C895.536 9.23526 894.209 6.06526 891.861 3.73729C889.503 1.40932 886.115 0.22057 883.015 0.161133L872.246 0.28495C745.65 1.7164 622.802 28.5029 507.097 79.9065L506.002 80.3919L504.903 79.9015C447.635 54.4623 387.558 34.7934 326.318 21.4447C265.132 8.1109 202.371 0.993247 139.759 0.28495L128.99 0.161133C125.905 0.195805 122.497 1.40932 120.144 3.73729C117.791 6.06526 116.469 9.23526 116.469 12.5439V538.13C116.464 544.97 122.011 550.513 128.847 550.513ZM870.775 525.831C748.983 527.426 630.494 552.598 518.385 600.703V101.992C630.093 52.5603 748.626 26.6851 870.775 25.0704V525.831V525.831ZM141.23 25.0704C201.583 25.8728 262.066 32.7923 321.043 45.6457C380.198 58.5387 438.254 77.4943 493.62 101.992V600.703C381.511 552.598 263.022 527.431 141.23 525.831V25.0704V25.0704Z" fill="#303840"/>
</svg>
