<svg width="153" height="193" viewBox="0 0 153 193" fill="none" xmlns="http://www.w3.org/2000/svg">
<path d="M27.131 2.5H2.5V175.5H27.131V2.5Z" fill="#303840"/>
<path d="M150.132 14.5H143.621C142.24 14.5 141.121 15.619 141.121 17C141.121 18.381 142.24 19.5 143.621 19.5H147.632V187.5H19.5117V182.5C19.5117 181.119 18.3927 180 17.0117 180C15.6307 180 14.5117 181.119 14.5117 182.5V190C14.5117 191.381 15.6307 192.5 17.0117 192.5H150.132C151.513 192.5 152.632 191.381 152.632 190V17C152.632 15.619 151.513 14.5 150.132 14.5Z" fill="#303840"/>
<path d="M138.12 175.5V2.5C138.12 1.119 137.001 0 135.62 0H2.5C1.119 0 0 1.119 0 2.5V175.5C0 176.881 1.119 178 2.5 178H135.621C137.001 178 138.12 176.881 138.12 175.5ZM133.12 173H5V5H133.121V173H133.12Z" fill="#303840"/>
<path d="M116.209 158.5H68.209C67.104 158.5 66.209 157.605 66.209 156.5V131.555C66.209 130.45 67.104 129.555 68.209 129.555H116.209C117.314 129.555 118.209 130.45 118.209 131.555V156.5C118.209 157.605 117.313 158.5 116.209 158.5Z" fill="#303840"/>
</svg>
