<svg id="_x31__x2C_5" enable-background="new 0 0 36 36" height="512" viewBox="0 0 36 36" width="512" xmlns="http://www.w3.org/2000/svg"><g><path d="m27.623 4.167c-6.917 0-11.667-3.583-15-3.583s-10.333 1.916-10.333 17.249 9.417 17.583 13.083 17.583c17.167.001 24.5-31.249 12.25-31.249z" fill="#efefef"/></g><g><path d="m6.033 2.467h2v1h-2z" fill="#a4afc1" transform="matrix(.707 -.707 .707 .707 -.038 5.842)"/></g><g><path d="m1.967 6.533h2v1h-2z" fill="#a4afc1" transform="matrix(.707 -.707 .707 .707 -4.104 4.158)"/></g><g><path d="m2.644 1.967h1v2h-1z" fill="#a4afc1" transform="matrix(.707 -.707 .707 .707 -1.177 3.092)"/></g><g><path d="m24.25 24.25h-15.5c-1.105 0-2-.895-2-2v-12h19.5v12c0 1.105-.895 2-2 2z" fill="#f3f3f1"/></g><g><path d="m26.25 10.25h-19.5v-1.5c0-1.105.895-2 2-2h15.5c1.105 0 2 .895 2 2z" fill="#2fdf84"/></g><g><path d="m11 6.75h-2.25c-1.105 0-2 .895-2 2v1.5h2.25v-1.5c0-1.105.895-2 2-2z" fill="#00b871"/></g><g><path d="m9 22.25v-12h-2.25v12c0 1.105.895 2 2 2h2.25c-1.105 0-2-.895-2-2z" fill="#d5dbe1"/></g><g><path d="m19 25h-10.25c-1.517 0-2.75-1.233-2.75-2.75v-13.5c0-1.517 1.233-2.75 2.75-2.75h15.5c1.517 0 2.75 1.233 2.75 2.75v7.25h-1.5v-7.25c0-.689-.561-1.25-1.25-1.25h-15.5c-.689 0-1.25.561-1.25 1.25v13.5c0 .689.561 1.25 1.25 1.25h10.25z"/></g><g><path d="m6.75 9.5h19.5v1.5h-19.5z"/></g><g><path d="m22 30h-1.5v-2.5c0-3.722 3.028-6.75 6.75-6.75h1.5v1.5h-1.5c-2.895 0-5.25 2.355-5.25 5.25z"/></g><g><path d="m26.5 25.311-1.061-1.061 2.75-2.75-2.75-2.75 1.061-1.061 3.28 3.28c.293.293.293.768 0 1.061z"/></g></svg>