<svg width="497" height="497" viewBox="0 0 497 497" fill="none" xmlns="http://www.w3.org/2000/svg">
<g clip-path="url(#clip0)">
<path d="M496.158 248.085C496.158 111.063 385.089 0.00292969 248.083 0.00292969C111.07 0.00292969 0 111.063 0 248.085C0 385.086 111.07 496.155 248.083 496.155C385.089 496.155 496.158 385.086 496.158 248.085Z" fill="#2280C1"/>
<path d="M315.249 359.555C313.862 357.523 311.201 356.8 308.979 357.853C284.397 369.49 256.497 381.793 251.021 382.868C250.883 382.745 250.664 382.52 250.377 382.131C249.635 381.126 249.274 379.813 249.274 378.116C249.274 364.211 259.769 321.911 280.466 252.397C297.917 193.991 299.935 181.898 299.935 177.883C299.935 171.685 297.562 166.448 293.07 162.737C288.803 159.218 282.841 157.435 275.351 157.435C262.892 157.435 248.452 162.165 231.205 171.896C214.492 181.329 195.853 197.306 175.809 219.383C174.24 221.112 174.076 223.697 175.414 225.611C176.754 227.526 179.239 228.255 181.4 227.375C188.437 224.503 223.802 210.016 228.957 206.778C233.178 204.132 236.832 202.789 239.818 202.789C239.925 202.789 240.017 202.793 240.094 202.799C240.13 202.997 240.164 203.299 240.164 203.732C240.164 206.779 239.537 210.386 238.308 214.435C208.172 312.076 193.523 371.933 193.523 397.429C193.523 406.427 196.024 413.671 200.955 418.957C205.98 424.35 212.758 427.084 221.101 427.084C229.992 427.084 240.813 423.37 254.181 415.73C267.117 408.338 286.861 392.077 314.544 366.013C316.337 364.326 316.636 361.587 315.249 359.555Z" fill="white"/>
<path d="M314.282 76.6722C309.357 71.6312 303.055 69.0752 295.553 69.0752C286.213 69.0752 278.078 72.7662 271.377 80.0462C264.783 87.2062 261.439 95.9922 261.439 106.159C261.439 114.192 263.902 120.849 268.759 125.944C273.681 131.116 279.898 133.738 287.235 133.738C296.193 133.738 304.284 129.84 311.282 122.152C318.158 114.599 321.645 105.719 321.645 95.7592C321.646 88.1052 319.169 81.6842 314.282 76.6722Z" fill="white"/>
</g>
<defs>
<clipPath id="clip0">
<rect width="496.158" height="496.158" fill="white"/>
</clipPath>
</defs>
</svg>
