<svg width="512" height="512" viewBox="0 0 512 512" fill="none" xmlns="http://www.w3.org/2000/svg">
<g clip-path="url(#clip0)">
<path d="M333.786 429.495L91.2067 373.753C83.1327 371.898 78.0917 363.849 79.9467 355.775L159.025 11.644C160.88 3.56997 168.929 -1.47103 177.003 0.383971L419.581 56.126C427.655 57.981 432.696 66.03 430.841 74.104L351.763 418.235C349.909 426.309 341.86 431.35 333.786 429.495V429.495Z" fill="#3BA0E6"/>
<path d="M419.584 56.127L406.54 53.13L330.554 383.807C328.646 392.108 320.37 397.292 312.069 395.384L82.9438 342.733L79.9468 355.777C78.0918 363.849 83.1318 371.897 91.2048 373.752L333.788 429.495C341.86 431.35 349.908 426.31 351.763 418.237L430.842 74.101C432.696 66.03 427.656 57.982 419.584 56.127V56.127Z" fill="#2280C1"/>
<path d="M338.351 458.014H89.4512C81.1672 458.014 74.4512 451.298 74.4512 443.014V89.9149C74.4512 81.6309 81.1672 74.9149 89.4512 74.9149H338.352C346.636 74.9149 353.352 81.6309 353.352 89.9149V443.014C353.351 451.298 346.635 458.014 338.351 458.014Z" fill="#ECBE6B"/>
<path d="M338.354 74.9149H324.97V414.21C324.97 422.728 318.065 429.633 309.547 429.633H74.4512V443.017C74.4512 451.3 81.1662 458.014 89.4482 458.014H338.354C346.637 458.014 353.351 451.299 353.351 443.017V89.9119C353.351 81.6289 346.637 74.9149 338.354 74.9149V74.9149Z" fill="#EAB14D"/>
<path d="M180.323 162.497H112.305C108.046 162.497 104.594 159.045 104.594 154.786C104.594 150.527 108.047 147.075 112.305 147.075H180.323C184.582 147.075 188.034 150.527 188.034 154.786C188.034 159.045 184.582 162.497 180.323 162.497Z" fill="#E7A52E"/>
<path d="M180.323 204.956H112.305C108.046 204.956 104.594 201.504 104.594 197.245C104.594 192.986 108.047 189.534 112.305 189.534H180.323C184.582 189.534 188.034 192.986 188.034 197.245C188.034 201.504 184.582 204.956 180.323 204.956Z" fill="#E7A52E"/>
<path d="M180.323 247.417H112.305C108.046 247.417 104.594 243.965 104.594 239.706C104.594 235.447 108.047 231.995 112.305 231.995H180.323C184.582 231.995 188.034 235.447 188.034 239.706C188.034 243.965 184.582 247.417 180.323 247.417Z" fill="#E7A52E"/>
<path d="M180.323 289.878H112.305C108.046 289.878 104.594 286.426 104.594 282.167C104.594 277.908 108.047 274.456 112.305 274.456H180.323C184.582 274.456 188.034 277.908 188.034 282.167C188.034 286.426 184.582 289.878 180.323 289.878Z" fill="#E7A52E"/>
<path d="M180.323 332.337H112.305C108.046 332.337 104.594 328.885 104.594 324.626C104.594 320.367 108.047 316.915 112.305 316.915H180.323C184.582 316.915 188.034 320.367 188.034 324.626C188.034 328.885 184.582 332.337 180.323 332.337Z" fill="#E7A52E"/>
<path d="M180.323 374.798H112.305C108.046 374.798 104.594 371.346 104.594 367.087C104.594 362.828 108.047 359.376 112.305 359.376H180.323C184.582 359.376 188.034 362.828 188.034 367.087C188.034 371.346 184.582 374.798 180.323 374.798Z" fill="#E7A52E"/>
<path d="M336.231 128.9H174.074C165.555 128.9 158.648 135.806 158.648 144.326V496.574C158.648 505.093 165.554 512 174.074 512H422.123C430.642 512 437.549 505.094 437.549 496.574V230.217C437.549 224.762 435.382 219.531 431.525 215.673L350.775 134.924C346.918 131.067 341.686 128.9 336.231 128.9V128.9Z" fill="#F9F6F9"/>
<path d="M431.525 215.674L403.83 187.979C407.687 191.836 409.853 197.067 409.853 202.522V468.878C409.853 477.398 402.947 484.304 394.427 484.304H158.648V496.574C158.648 505.093 165.554 512 174.074 512H422.123C430.642 512 437.549 505.094 437.549 496.574V230.217C437.549 224.762 435.382 219.531 431.525 215.674V215.674Z" fill="#E7ECF6"/>
<path d="M431.526 215.674L350.776 134.925C347.936 132.085 344.349 130.171 340.479 129.354V215.687C340.479 221.367 345.083 225.971 350.763 225.971H437.097C436.28 222.1 434.365 218.513 431.526 215.674V215.674Z" fill="#E7ECF6"/>
<path d="M431.526 215.674L413.591 197.74H340.479V215.687C340.479 221.366 345.083 225.971 350.763 225.971H437.097C436.28 222.101 434.365 218.513 431.526 215.674V215.674Z" fill="#D8E2F1"/>
<path d="M384.001 337.702C388.26 337.702 391.712 334.25 391.712 329.991C391.712 325.732 388.259 322.28 384.001 322.28H231.342V295.243H384.001C388.26 295.243 391.712 291.791 391.712 287.532C391.712 283.273 388.259 279.821 384.001 279.821H231.342V269.55C231.342 265.29 227.889 261.838 223.631 261.838C219.373 261.838 215.92 265.29 215.92 269.55V279.821H193.463C189.204 279.821 185.752 283.273 185.752 287.532C185.752 291.791 189.205 295.243 193.463 295.243H215.92V322.28H193.463C189.204 322.28 185.752 325.732 185.752 329.991C185.752 334.25 189.205 337.702 193.463 337.702H215.92V364.74H193.463C189.204 364.74 185.752 368.192 185.752 372.451C185.752 376.71 189.205 380.162 193.463 380.162H215.92V407.199H193.463C189.204 407.199 185.752 410.651 185.752 414.91C185.752 419.169 189.205 422.622 193.463 422.622H215.92V432.879C215.92 437.139 219.373 440.591 223.631 440.591C227.889 440.591 231.342 437.139 231.342 432.879V422.622H384.001C388.26 422.622 391.712 419.17 391.712 414.91C391.712 410.651 388.259 407.199 384.001 407.199H231.342V380.162H384.001C388.26 380.162 391.712 376.71 391.712 372.451C391.712 368.192 388.259 364.74 384.001 364.74H231.342V337.702H384.001Z" fill="#D8E2F1"/>
</g>
<defs>
<clipPath id="clip0">
<rect width="512" height="512" fill="white"/>
</clipPath>
</defs>
</svg>
