<svg width="512" height="512" viewBox="0 0 512 512" fill="none" xmlns="http://www.w3.org/2000/svg">
<path d="M512 256C512 337.92 473.52 410.85 413.65 457.71C375.62 487.47 328.97 506.71 278.07 511.06C270.8 511.68 263.44 512 256 512H255.99C248.56 512 241.2 511.68 233.92 511.06C183.01 506.72 136.35 487.47 98.33 457.69C38.47 410.83 0 337.91 0 256C0 114.62 114.62 0 256 0C397.38 0 512 114.62 512 256V256Z" fill="#2280C1"/>
<path d="M375.463 393.231C365.111 400.177 354.122 406.25 342.596 411.325C333.662 415.268 324.409 418.623 314.888 421.324C296.181 426.651 276.426 429.503 256 429.503C235.582 429.503 215.827 426.651 197.112 421.332C191.039 419.604 185.066 417.607 179.219 415.359C178.858 415.225 178.498 415.091 178.137 414.948C175.193 413.807 172.282 412.591 169.404 411.324C157.878 406.241 146.889 400.176 136.529 393.221C145.245 381.167 156.46 371.05 169.404 363.592C177.96 358.668 187.272 354.918 197.112 352.561C198.63 352.192 200.165 351.856 201.709 351.563C204.62 350.993 207.581 350.556 210.576 350.246C211.44 350.154 212.296 350.07 213.168 350.003C216.003 349.768 218.872 349.651 221.775 349.651H290.218C294.01 349.651 297.743 349.852 301.417 350.238C304.412 350.548 307.365 350.993 310.284 351.547C311.45 351.773 312.608 352.017 313.757 352.277C314.135 352.378 314.52 352.453 314.89 352.554C324.738 354.92 334.041 358.669 342.598 363.593C355.54 371.06 366.747 381.177 375.463 393.231V393.231Z" fill="#F6F1F1"/>
<path d="M221.775 349.652C197.146 349.652 180.453 385.245 179.219 415.36C178.858 415.226 178.498 415.092 178.137 414.949C175.193 413.808 172.282 412.592 169.404 411.325C157.878 406.242 146.889 400.177 136.529 393.222C145.245 381.168 156.46 371.051 169.404 363.593C177.96 358.669 187.272 354.919 197.112 352.562C198.63 352.193 200.165 351.857 201.709 351.564C204.62 350.994 207.581 350.557 210.576 350.247C211.44 350.155 212.296 350.071 213.168 350.004C216.003 349.77 218.872 349.652 221.775 349.652V349.652Z" fill="#DFEAEF"/>
<path d="M255.99 392.687L211.536 417.392L198.012 350.295L225.635 338.221" fill="#DFEAEF"/>
<path d="M255.99 392.687L300.445 417.392L313.968 350.295L286.346 338.221" fill="#DFEAEF"/>
<path d="M293.501 309.159V355.187C293.501 372.038 282.39 386.282 267.086 391.012C263.583 392.099 259.849 392.687 255.988 392.687C235.275 392.687 218.488 375.9 218.488 355.187V309.159H293.501Z" fill="#EAAC9D"/>
<path d="M293.502 352.271V355.186C293.502 372.037 282.391 386.281 267.087 391.011C253.279 386.766 242.897 374.761 240.979 360.07C243.485 360.223 246.004 360.3 248.535 360.3C255.631 360.3 262.586 359.737 269.363 358.625C277.712 357.283 285.78 355.135 293.502 352.271V352.271Z" fill="#FFCBBE"/>
<path d="M152.434 233.338C152.434 250.532 139.874 264.789 123.427 267.435C121.629 267.726 119.781 267.878 117.894 267.878C98.8125 267.878 83.3535 252.419 83.3535 233.338C83.3535 214.257 98.8125 198.798 117.894 198.798C119.781 198.798 121.629 198.95 123.427 199.241C139.874 201.888 152.434 216.144 152.434 233.338V233.338Z" fill="#FFCBBE"/>
<path d="M152.434 233.338C152.434 250.532 139.874 264.789 123.427 267.435C120.439 256.572 118.844 245.139 118.844 233.338C118.844 221.538 120.439 210.105 123.427 199.241C139.874 201.888 152.434 216.144 152.434 233.338Z" fill="#EAAC9D"/>
<path d="M117.894 245.683C124.712 245.683 130.239 240.156 130.239 233.338C130.239 226.52 124.712 220.993 117.894 220.993C111.076 220.993 105.549 226.52 105.549 233.338C105.549 240.156 111.076 245.683 117.894 245.683Z" fill="#EAAC9D"/>
<path d="M359.557 233.338C359.557 250.532 372.117 264.789 388.564 267.435C390.362 267.726 392.21 267.878 394.097 267.878C413.178 267.878 428.637 252.419 428.637 233.338C428.637 214.257 413.178 198.798 394.097 198.798C392.21 198.798 390.362 198.95 388.564 199.241C372.117 201.888 359.557 216.144 359.557 233.338V233.338Z" fill="#FFCBBE"/>
<path d="M359.557 233.338C359.557 250.532 372.117 264.789 388.564 267.435C391.552 256.572 393.147 245.139 393.147 233.338C393.147 221.538 391.552 210.105 388.564 199.241C372.117 201.888 359.557 216.144 359.557 233.338Z" fill="#EAAC9D"/>
<path d="M394.097 245.683C400.915 245.683 406.442 240.156 406.442 233.338C406.442 226.52 400.915 220.993 394.097 220.993C387.279 220.993 381.752 226.52 381.752 233.338C381.752 240.156 387.279 245.683 394.097 245.683Z" fill="#EAAC9D"/>
<path d="M385.768 215.183C385.768 279.763 338.589 333.334 276.822 343.282C270.046 344.394 263.09 344.957 255.994 344.957C184.318 344.957 126.221 286.859 126.221 215.184V83.063H385.768V215.183Z" fill="#FFCBBE"/>
<path d="M278.854 342.941C278.183 343.058 277.503 343.176 276.824 343.285C270.046 344.392 263.092 344.954 255.995 344.954C184.322 344.954 126.223 286.863 126.223 215.182V83.061H171.983V215.182C171.982 279.054 218.103 332.129 278.854 342.941Z" fill="#EAAC9D"/>
<path d="M385.768 199.813L380.285 117.733C298.307 145.502 243.701 158.611 209.068 152.692C257.614 143.416 271.636 112.76 271.636 112.76C271.636 112.76 239.82 133.313 205.385 140.154C189.234 143.359 172.838 135.015 166.371 119.866C166.324 119.784 166.289 119.691 166.254 119.61C166.254 119.61 167.028 199.814 126.22 199.814C126.22 199.814 71.2827 19.395 158.097 45.031C158.097 45.031 183.209 21.97 220.697 8.85995C220.837 8.81295 220.977 8.76695 221.128 8.70895C221.536 8.55695 221.955 8.41795 222.375 8.28895C222.818 8.14895 223.237 8.00895 223.634 7.86895C263.278 -5.20605 315.938 -6.57005 367.269 40.951C469.233 135.34 385.768 199.813 385.768 199.813V199.813Z" fill="#2F373B"/>
<path d="M205.387 140.153C189.236 143.358 172.84 135.014 166.373 119.865C166.326 119.783 166.291 119.69 166.256 119.609C166.256 119.609 167.03 199.813 126.222 199.813C126.222 199.813 71.2846 19.3939 158.099 45.0299C158.099 45.0299 183.211 21.9689 220.699 8.85889C169.252 27.5969 182.815 140.153 205.387 140.153V140.153Z" fill="#181E21"/>
<path d="M255.995 298.483C245.128 298.483 234.262 295.76 224.356 290.315C221.562 288.779 220.542 285.269 222.078 282.475C223.614 279.681 227.125 278.662 229.918 280.197C246.246 289.174 265.743 289.173 282.071 280.197C284.863 278.661 288.374 279.68 289.911 282.475C291.447 285.269 290.427 288.779 287.633 290.315C277.728 295.76 266.861 298.483 255.995 298.483V298.483Z" fill="#DF9380"/>
<path d="M270.716 259.697H241.274C237.767 259.697 234.924 256.854 234.924 253.347C234.924 249.84 237.767 246.997 241.274 246.997H270.716C274.223 246.997 277.066 249.84 277.066 253.347C277.066 256.854 274.223 259.697 270.716 259.697Z" fill="#EAAC9D"/>
<path d="M277.256 224.017C277.256 238.416 288.929 250.089 303.328 250.089C317.727 250.089 329.4 238.416 329.4 224.017" fill="#EAAC9D"/>
<path d="M303.329 242.713C313.654 242.713 322.025 234.343 322.025 224.017C322.025 213.692 313.654 205.321 303.329 205.321C293.003 205.321 284.633 213.692 284.633 224.017C284.633 234.343 293.003 242.713 303.329 242.713Z" fill="#2F373B"/>
<path d="M311.118 228.729C315.543 228.729 319.129 225.142 319.129 220.718C319.129 216.294 315.543 212.707 311.118 212.707C306.694 212.707 303.107 216.294 303.107 220.718C303.107 225.142 306.694 228.729 311.118 228.729Z" fill="white"/>
<path d="M182.59 224.017C182.59 238.416 194.263 250.089 208.662 250.089C223.061 250.089 234.734 238.416 234.734 224.017" fill="#EAAC9D"/>
<path d="M208.663 242.713C218.988 242.713 227.359 234.343 227.359 224.017C227.359 213.692 218.988 205.321 208.663 205.321C198.337 205.321 189.967 213.692 189.967 224.017C189.967 234.343 198.337 242.713 208.663 242.713Z" fill="#2F373B"/>
<path d="M213.035 242.196C211.634 242.54 210.166 242.716 208.665 242.716C198.339 242.716 189.967 234.344 189.967 224.018C189.967 213.692 198.339 205.32 208.665 205.32C210.167 205.32 211.635 205.496 213.035 205.84C204.814 207.803 198.716 215.202 198.716 224.018C198.716 232.834 204.814 240.233 213.035 242.196Z" fill="#181E21"/>
<path d="M307.7 242.196C306.299 242.54 304.831 242.716 303.329 242.716C293.003 242.716 284.631 234.344 284.631 224.018C284.631 213.692 293.003 205.32 303.329 205.32C304.831 205.32 306.299 205.496 307.7 205.84C299.479 207.803 293.381 215.202 293.381 224.018C293.381 232.834 299.479 240.233 307.7 242.196Z" fill="#181E21"/>
<path d="M216.452 228.729C220.877 228.729 224.463 225.142 224.463 220.718C224.463 216.294 220.877 212.707 216.452 212.707C212.028 212.707 208.441 216.294 208.441 220.718C208.441 225.142 212.028 228.729 216.452 228.729Z" fill="white"/>
<path d="M255.99 339.9V512C248.56 512 241.2 511.68 233.92 511.06C183.01 506.72 136.35 487.47 98.3301 457.69V349.62C98.3301 332.42 112.27 318.47 129.48 318.47H234.56C246.39 318.47 255.99 328.07 255.99 339.9V339.9Z" fill="#F6F1F1"/>
<path d="M135.64 318.47V448.91H98.3301V349.62C98.3301 332.42 112.27 318.47 129.48 318.47H135.64Z" fill="#DFEAEF"/>
<path d="M413.65 364.62V457.71C375.62 487.47 328.97 506.71 278.07 511.06C270.8 511.68 263.44 512 256 512H255.99V338.638C255.99 335.784 258.304 333.47 261.158 333.47H382.5C399.704 333.47 413.65 347.416 413.65 364.62V364.62Z" fill="#F6F1F1"/>
<path d="M255.99 338.22V512C196.52 512 141.78 491.72 98.3301 457.69V369.37C98.3301 352.17 112.27 338.22 129.48 338.22H255.99Z" fill="#66B49D"/>
<path d="M413.65 369.37V457.71C370.19 491.72 315.46 512 256 512H255.99V338.22H382.5C399.7 338.22 413.65 352.17 413.65 369.37Z" fill="#80E29D"/>
<path d="M278.07 338.22V511.06C270.8 511.68 263.44 512 256 512H255.99C248.56 512 241.2 511.68 233.92 511.06V338.22H278.07Z" fill="#1E8470"/>
<path d="M233.924 358.014H278.065V377.807H233.924V358.014Z" fill="#ECC32E"/>
<path d="M377.674 403.639H311.21C304.993 403.639 299.953 398.599 299.953 392.382V374.998C299.953 368.781 304.993 363.741 311.21 363.741H377.674C383.891 363.741 388.931 368.781 388.931 374.998V392.382C388.931 398.599 383.891 403.639 377.674 403.639Z" fill="#ECC32E"/>
<path d="M312.953 383.69C312.953 379.852 316.064 376.741 319.902 376.741H368.982C372.82 376.741 375.931 379.852 375.931 383.69C375.931 387.528 372.82 390.639 368.982 390.639H319.902C316.064 390.639 312.953 387.528 312.953 383.69Z" fill="#2F373B"/>
<path d="M233.924 392.687H278.065V412.48H233.924V392.687Z" fill="#ECC32E"/>
</svg>
