<svg width="155" height="193" viewBox="0 0 155 193" fill="none" xmlns="http://www.w3.org/2000/svg">
<path d="M151.513 0.5C150.132 0.5 149.013 1.619 149.013 3L147.632 187.5H19.5117V182.5C19.5117 181.119 18.3927 180 17.0117 180C15.6307 180 14.5117 181.119 14.5117 182.5V190C14.5117 191.381 15.6307 192.5 17.0117 192.5H150.132C151.513 192.5 152.632 191.381 152.632 190L154.013 3C154.013 1.619 152.894 0.5 151.513 0.5Z" fill="#303840"/>
<path d="M138.12 175.5V2.5C138.12 1.119 137.001 0 135.62 0H2.5C1.119 0 0 1.119 0 2.5V175.5C0 176.881 1.119 178 2.5 178H135.62C137.001 178 138.12 176.881 138.12 175.5ZM133.12 173H5V5H133.12V173Z" fill="#303840"/>
<path d="M22.4639 153.664C26.5138 153.664 29.7969 150.381 29.7969 146.331C29.7969 142.281 26.5138 138.998 22.4639 138.998C18.414 138.998 15.1309 142.281 15.1309 146.331C15.1309 150.381 18.414 153.664 22.4639 153.664Z" fill="#303840"/>
<path d="M99.1975 148.998H59.0642C46.3935 148.998 36.1309 148.968 36.1309 148.931V144.065C36.1309 144.028 46.3935 143.998 59.0642 143.998H99.1975C111.868 143.998 122.131 144.028 122.131 144.065V148.931C122.131 148.968 111.868 148.998 99.1975 148.998Z" fill="#303840"/>
<path d="M22.4639 112.998C26.5138 112.998 29.7969 109.715 29.7969 105.665C29.7969 101.615 26.5138 98.332 22.4639 98.332C18.414 98.332 15.1309 101.615 15.1309 105.665C15.1309 109.715 18.414 112.998 22.4639 112.998Z" fill="#303840"/>
<path d="M99.1975 108.665H59.0642C46.3935 108.665 36.1309 108.635 36.1309 108.598V103.732C36.1309 103.695 46.3935 103.665 59.0642 103.665H99.1975C111.868 103.665 122.131 103.695 122.131 103.732V108.598C122.131 108.635 111.868 108.665 99.1975 108.665Z" fill="#303840"/>
<path d="M22.4639 72.332C26.5138 72.332 29.7969 69.0489 29.7969 64.999C29.7969 60.9491 26.5138 57.666 22.4639 57.666C18.414 57.666 15.1309 60.9491 15.1309 64.999C15.1309 69.0489 18.414 72.332 22.4639 72.332Z" fill="#303840"/>
<path d="M99.1975 68.332H59.0642C46.3935 68.332 36.1309 68.3022 36.1309 68.2654V63.3986C36.1309 63.3618 46.3935 63.332 59.0642 63.332H99.1975C111.868 63.332 122.131 63.3618 122.131 63.3986V68.2654C122.131 68.3022 111.868 68.332 99.1975 68.332Z" fill="#303840"/>
<path d="M22.4639 31.666C26.5138 31.666 29.7969 28.3829 29.7969 24.333C29.7969 20.2831 26.5138 17 22.4639 17C18.414 17 15.1309 20.2831 15.1309 24.333C15.1309 28.3829 18.414 31.666 22.4639 31.666Z" fill="#303840"/>
<path d="M99.1975 27H59.0642C46.3935 27 36.1309 26.9702 36.1309 26.9334V22.0666C36.1309 22.0298 46.3935 22 59.0642 22H99.1975C111.868 22 122.131 22.0298 122.131 22.0666V26.9333C122.131 26.9702 111.868 27 99.1975 27Z" fill="#303840"/>
</svg>
