<svg width="512" height="512" viewBox="0 0 512 512" fill="none" xmlns="http://www.w3.org/2000/svg">
<g clip-path="url(#clip0)">
<path d="M441.601 73.6001H382.934V176H441.601V73.6001Z" fill="#F05540"/>
<path d="M464 21.333H360.533V76.8H464V21.333Z" fill="#2280C1"/>
<path d="M44.8008 276.267V512H462.934V276.267C380.801 194.134 334.934 148.267 253.867 67.2002C172.801 149.333 126.934 195.2 44.8008 276.267Z" fill="#FFD15C"/>
<path d="M464.001 276.267C381.868 194.134 336.001 148.267 254.934 67.2002C213.334 107.733 181.334 139.733 149.334 171.733C117.334 203.733 85.3338 235.733 44.8008 276.266V324.266C126.934 242.133 172.801 196.266 253.868 115.199C336.001 197.332 381.868 243.199 462.935 324.266V330.666V276.266H464.001V276.267Z" fill="#F7B64C"/>
<path d="M216.534 512H90.668V388.267C90.668 353.067 119.468 325.334 153.601 325.334C188.801 325.334 216.534 354.134 216.534 388.267V512Z" fill="#415A6B"/>
<path d="M418.134 325.333H253.867V469.333H418.134V325.333Z" fill="#344A5E"/>
<path d="M327.467 342.4H270.934V452.267H327.467V342.4Z" fill="#8AD7F8"/>
<path d="M401.066 342.4H344.533V452.267H401.066V342.4Z" fill="#8AD7F8"/>
<path d="M502.4 232.533L279.467 9.6C266.667 -3.2 244.267 -3.2 231.467 9.6L9.6 232.533C-3.2 245.333 -3.2 267.733 9.6 280.533C22.4 293.333 44.8 293.333 57.6 280.533L256 82.133L454.4 280.533C467.2 293.333 489.6 293.333 502.4 280.533C515.2 266.667 515.2 245.333 502.4 232.533Z" fill="#2280C1"/>
</g>
<defs>
<clipPath id="clip0">
<rect width="512" height="512" fill="white"/>
</clipPath>
</defs>
</svg>
